<mxfile host="65bd71144e">
    <diagram id="iRuJoUfCndcfl9qR-i0W" name="Page-1">
        <mxGraphModel dx="1313" dy="1461" grid="1" gridSize="10" guides="1" tooltips="1" connect="1" arrows="1" fold="1" page="1" pageScale="1" pageWidth="827" pageHeight="1169" math="0" shadow="0">
            <root>
                <mxCell id="0"/>
                <mxCell id="1" parent="0"/>
                <mxCell id="mfv2O1PccH4M57eqfQ7O-268" value="Movie&lt;br&gt;(id)" style="ellipse;whiteSpace=wrap;html=1;" parent="1" vertex="1">
                    <mxGeometry x="-119" y="327" width="205" height="120" as="geometry"/>
                </mxCell>
                <mxCell id="mfv2O1PccH4M57eqfQ7O-269" value="" style="endArrow=none;html=1;rounded=0;" parent="1" edge="1">
                    <mxGeometry width="50" height="50" relative="1" as="geometry">
                        <mxPoint x="-117" y="516.81" as="sourcePoint"/>
                        <mxPoint x="-197" y="516.4699999999998" as="targetPoint"/>
                    </mxGeometry>
                </mxCell>
                <mxCell id="mfv2O1PccH4M57eqfQ7O-270" value="" style="group" parent="1" vertex="1" connectable="0">
                    <mxGeometry x="-277" y="497" width="80" height="40" as="geometry"/>
                </mxCell>
                <mxCell id="mfv2O1PccH4M57eqfQ7O-271" value="" style="rounded=0;whiteSpace=wrap;html=1;" parent="mfv2O1PccH4M57eqfQ7O-270" vertex="1">
                    <mxGeometry width="40" height="40" as="geometry"/>
                </mxCell>
                <mxCell id="mfv2O1PccH4M57eqfQ7O-272" value="" style="rounded=0;whiteSpace=wrap;html=1;" parent="mfv2O1PccH4M57eqfQ7O-270" vertex="1">
                    <mxGeometry x="40" width="40" height="40" as="geometry"/>
                </mxCell>
                <mxCell id="mfv2O1PccH4M57eqfQ7O-274" value="" style="endArrow=none;html=1;rounded=0;" parent="1" edge="1">
                    <mxGeometry width="50" height="50" relative="1" as="geometry">
                        <mxPoint x="-277" y="516.5799999999999" as="sourcePoint"/>
                        <mxPoint x="-357" y="517" as="targetPoint"/>
                    </mxGeometry>
                </mxCell>
                <mxCell id="mfv2O1PccH4M57eqfQ7O-275" value="" style="endArrow=none;html=1;rounded=0;" parent="1" edge="1">
                    <mxGeometry width="50" height="50" relative="1" as="geometry">
                        <mxPoint x="-117" y="257" as="sourcePoint"/>
                        <mxPoint x="-197" y="257" as="targetPoint"/>
                    </mxGeometry>
                </mxCell>
                <mxCell id="mfv2O1PccH4M57eqfQ7O-276" value="" style="group" parent="1" vertex="1" connectable="0">
                    <mxGeometry x="-277" y="236" width="80" height="40" as="geometry"/>
                </mxCell>
                <mxCell id="mfv2O1PccH4M57eqfQ7O-277" value="" style="rounded=0;whiteSpace=wrap;html=1;" parent="mfv2O1PccH4M57eqfQ7O-276" vertex="1">
                    <mxGeometry width="40" height="40" as="geometry"/>
                </mxCell>
                <mxCell id="mfv2O1PccH4M57eqfQ7O-278" value="" style="rounded=0;whiteSpace=wrap;html=1;" parent="mfv2O1PccH4M57eqfQ7O-276" vertex="1">
                    <mxGeometry x="40" width="40" height="40" as="geometry"/>
                </mxCell>
                <mxCell id="mfv2O1PccH4M57eqfQ7O-279" value="Actors" style="ellipse;whiteSpace=wrap;html=1;dashed=1;" parent="1" vertex="1">
                    <mxGeometry x="-477" y="217" width="120" height="80" as="geometry"/>
                </mxCell>
                <mxCell id="mfv2O1PccH4M57eqfQ7O-280" value="" style="endArrow=none;html=1;rounded=0;" parent="1" edge="1">
                    <mxGeometry width="50" height="50" relative="1" as="geometry">
                        <mxPoint x="-277" y="256.5799999999997" as="sourcePoint"/>
                        <mxPoint x="-357" y="257" as="targetPoint"/>
                    </mxGeometry>
                </mxCell>
                <mxCell id="mfv2O1PccH4M57eqfQ7O-281" value="" style="endArrow=none;html=1;rounded=0;startArrow=none;exitX=0.34;exitY=0.028;exitDx=0;exitDy=0;exitPerimeter=0;" parent="1" source="mfv2O1PccH4M57eqfQ7O-268" edge="1">
                    <mxGeometry width="50" height="50" relative="1" as="geometry">
                        <mxPoint x="-51.27465269209881" y="338.2215545860398" as="sourcePoint"/>
                        <mxPoint x="-117" y="257" as="targetPoint"/>
                    </mxGeometry>
                </mxCell>
                <mxCell id="mfv2O1PccH4M57eqfQ7O-282" value="" style="endArrow=classic;startArrow=classic;html=1;rounded=0;" parent="1" edge="1">
                    <mxGeometry width="50" height="50" relative="1" as="geometry">
                        <mxPoint x="-238" y="227" as="sourcePoint"/>
                        <mxPoint x="-197" y="227" as="targetPoint"/>
                    </mxGeometry>
                </mxCell>
                <mxCell id="mfv2O1PccH4M57eqfQ7O-283" value="" style="endArrow=classic;startArrow=classic;html=1;rounded=0;" parent="1" edge="1">
                    <mxGeometry width="50" height="50" relative="1" as="geometry">
                        <mxPoint x="-237" y="487" as="sourcePoint"/>
                        <mxPoint x="-197" y="487" as="targetPoint"/>
                    </mxGeometry>
                </mxCell>
                <mxCell id="mfv2O1PccH4M57eqfQ7O-324" value="" style="endArrow=none;html=1;rounded=0;entryX=0.228;entryY=0.932;entryDx=0;entryDy=0;entryPerimeter=0;" parent="1" target="mfv2O1PccH4M57eqfQ7O-268" edge="1">
                    <mxGeometry width="50" height="50" relative="1" as="geometry">
                        <mxPoint x="-117" y="517" as="sourcePoint"/>
                        <mxPoint x="-83" y="457" as="targetPoint"/>
                    </mxGeometry>
                </mxCell>
                <mxCell id="mfv2O1PccH4M57eqfQ7O-325" value="" style="ellipse;whiteSpace=wrap;html=1;fillColor=#1900FF;strokeColor=#1900FF;" parent="1" vertex="1">
                    <mxGeometry x="-77" y="433" width="10" height="10" as="geometry"/>
                </mxCell>
                <mxCell id="mfv2O1PccH4M57eqfQ7O-326" value="" style="ellipse;whiteSpace=wrap;html=1;fillColor=#1900FF;strokeColor=#1900FF;" parent="1" vertex="1">
                    <mxGeometry x="-55" y="325" width="10" height="10" as="geometry"/>
                </mxCell>
                <mxCell id="mfv2O1PccH4M57eqfQ7O-345" value="" style="group" parent="1" vertex="1" connectable="0">
                    <mxGeometry x="-277" y="327" width="80" height="40" as="geometry"/>
                </mxCell>
                <mxCell id="mfv2O1PccH4M57eqfQ7O-346" value="" style="rounded=0;whiteSpace=wrap;html=1;" parent="mfv2O1PccH4M57eqfQ7O-345" vertex="1">
                    <mxGeometry width="40" height="40" as="geometry"/>
                </mxCell>
                <mxCell id="mfv2O1PccH4M57eqfQ7O-347" value="" style="rounded=0;whiteSpace=wrap;html=1;" parent="mfv2O1PccH4M57eqfQ7O-345" vertex="1">
                    <mxGeometry x="40" width="40" height="40" as="geometry"/>
                </mxCell>
                <mxCell id="mfv2O1PccH4M57eqfQ7O-348" value="Description" style="ellipse;whiteSpace=wrap;html=1;dashed=1;" parent="1" vertex="1">
                    <mxGeometry x="-477" y="307" width="120" height="80" as="geometry"/>
                </mxCell>
                <mxCell id="mfv2O1PccH4M57eqfQ7O-349" value="" style="endArrow=none;html=1;rounded=0;" parent="1" edge="1">
                    <mxGeometry width="50" height="50" relative="1" as="geometry">
                        <mxPoint x="-277" y="346.5799999999997" as="sourcePoint"/>
                        <mxPoint x="-357" y="347" as="targetPoint"/>
                    </mxGeometry>
                </mxCell>
                <mxCell id="mfv2O1PccH4M57eqfQ7O-350" value="" style="endArrow=none;html=1;rounded=0;startArrow=none;" parent="1" edge="1">
                    <mxGeometry width="50" height="50" relative="1" as="geometry">
                        <mxPoint x="-92" y="347" as="sourcePoint"/>
                        <mxPoint x="-197" y="347.15999999999997" as="targetPoint"/>
                    </mxGeometry>
                </mxCell>
                <mxCell id="mfv2O1PccH4M57eqfQ7O-351" value="" style="endArrow=classic;startArrow=classic;html=1;rounded=0;" parent="1" edge="1">
                    <mxGeometry width="50" height="50" relative="1" as="geometry">
                        <mxPoint x="-238" y="317" as="sourcePoint"/>
                        <mxPoint x="-197" y="317" as="targetPoint"/>
                    </mxGeometry>
                </mxCell>
                <mxCell id="mfv2O1PccH4M57eqfQ7O-352" value="" style="ellipse;whiteSpace=wrap;html=1;fillColor=#1900FF;strokeColor=#1900FF;" parent="1" vertex="1">
                    <mxGeometry x="-98" y="342" width="10" height="10" as="geometry"/>
                </mxCell>
                <mxCell id="mfv2O1PccH4M57eqfQ7O-353" value="" style="endArrow=none;html=1;rounded=0;exitX=0.111;exitY=0.833;exitDx=0;exitDy=0;exitPerimeter=0;" parent="1" source="mfv2O1PccH4M57eqfQ7O-268" edge="1">
                    <mxGeometry width="50" height="50" relative="1" as="geometry">
                        <mxPoint x="-117" y="427" as="sourcePoint"/>
                        <mxPoint x="-196" y="427" as="targetPoint"/>
                    </mxGeometry>
                </mxCell>
                <mxCell id="mfv2O1PccH4M57eqfQ7O-354" value="" style="group" parent="1" vertex="1" connectable="0">
                    <mxGeometry x="-277" y="407" width="80" height="40" as="geometry"/>
                </mxCell>
                <mxCell id="mfv2O1PccH4M57eqfQ7O-355" value="" style="rounded=0;whiteSpace=wrap;html=1;" parent="mfv2O1PccH4M57eqfQ7O-354" vertex="1">
                    <mxGeometry width="40" height="40" as="geometry"/>
                </mxCell>
                <mxCell id="mfv2O1PccH4M57eqfQ7O-356" value="" style="rounded=0;whiteSpace=wrap;html=1;" parent="mfv2O1PccH4M57eqfQ7O-354" vertex="1">
                    <mxGeometry x="40" width="40" height="40" as="geometry"/>
                </mxCell>
                <mxCell id="mfv2O1PccH4M57eqfQ7O-357" value="ReleaseDate" style="ellipse;whiteSpace=wrap;html=1;dashed=1;" parent="1" vertex="1">
                    <mxGeometry x="-477" y="387" width="120" height="80" as="geometry"/>
                </mxCell>
                <mxCell id="mfv2O1PccH4M57eqfQ7O-358" value="" style="endArrow=none;html=1;rounded=0;" parent="1" edge="1">
                    <mxGeometry width="50" height="50" relative="1" as="geometry">
                        <mxPoint x="-277" y="426.5799999999997" as="sourcePoint"/>
                        <mxPoint x="-357" y="427" as="targetPoint"/>
                    </mxGeometry>
                </mxCell>
                <mxCell id="mfv2O1PccH4M57eqfQ7O-360" value="" style="endArrow=classic;startArrow=classic;html=1;rounded=0;" parent="1" edge="1">
                    <mxGeometry width="50" height="50" relative="1" as="geometry">
                        <mxPoint x="-238" y="397" as="sourcePoint"/>
                        <mxPoint x="-197" y="397" as="targetPoint"/>
                    </mxGeometry>
                </mxCell>
                <mxCell id="mfv2O1PccH4M57eqfQ7O-361" value="" style="ellipse;whiteSpace=wrap;html=1;fillColor=#1900FF;strokeColor=#1900FF;" parent="1" vertex="1">
                    <mxGeometry x="-102" y="422" width="10" height="10" as="geometry"/>
                </mxCell>
                <mxCell id="mfv2O1PccH4M57eqfQ7O-370" value="" style="group;rotation=-300;" parent="1" vertex="1" connectable="0">
                    <mxGeometry x="-51" y="594" width="80" height="40" as="geometry"/>
                </mxCell>
                <mxCell id="mfv2O1PccH4M57eqfQ7O-371" value="" style="rounded=0;whiteSpace=wrap;html=1;rotation=-300;" parent="mfv2O1PccH4M57eqfQ7O-370" vertex="1">
                    <mxGeometry x="10" y="-17" width="40" height="40" as="geometry"/>
                </mxCell>
                <mxCell id="mfv2O1PccH4M57eqfQ7O-372" value="" style="rounded=0;whiteSpace=wrap;html=1;rotation=-300;" parent="mfv2O1PccH4M57eqfQ7O-370" vertex="1">
                    <mxGeometry x="30" y="17" width="40" height="40" as="geometry"/>
                </mxCell>
                <mxCell id="mfv2O1PccH4M57eqfQ7O-373" value="" style="group;rotation=-120;" parent="1" vertex="1" connectable="0">
                    <mxGeometry x="27" y="552" width="80" height="40" as="geometry"/>
                </mxCell>
                <mxCell id="mfv2O1PccH4M57eqfQ7O-374" value="" style="rounded=0;whiteSpace=wrap;html=1;rotation=-120;" parent="mfv2O1PccH4M57eqfQ7O-373" vertex="1">
                    <mxGeometry x="30" y="17" width="40" height="40" as="geometry"/>
                </mxCell>
                <mxCell id="mfv2O1PccH4M57eqfQ7O-375" value="" style="rounded=0;whiteSpace=wrap;html=1;rotation=-120;" parent="mfv2O1PccH4M57eqfQ7O-373" vertex="1">
                    <mxGeometry x="10" y="-17" width="40" height="40" as="geometry"/>
                </mxCell>
                <mxCell id="mfv2O1PccH4M57eqfQ7O-376" value="Country" style="ellipse;whiteSpace=wrap;html=1;dashed=1;rotation=-300;" parent="1" vertex="1">
                    <mxGeometry x="96" y="688" width="120" height="80" as="geometry"/>
                </mxCell>
                <mxCell id="mfv2O1PccH4M57eqfQ7O-377" value="TrailerURL" style="ellipse;whiteSpace=wrap;html=1;dashed=1;rotation=-300;" parent="1" vertex="1">
                    <mxGeometry x="19" y="730" width="120" height="80" as="geometry"/>
                </mxCell>
                <mxCell id="mfv2O1PccH4M57eqfQ7O-378" value="" style="endArrow=none;html=1;rounded=0;entryX=0;entryY=0.5;entryDx=0;entryDy=0;exitX=1;exitY=0.5;exitDx=0;exitDy=0;" parent="1" source="mfv2O1PccH4M57eqfQ7O-372" target="mfv2O1PccH4M57eqfQ7O-377" edge="1">
                    <mxGeometry width="50" height="50" relative="1" as="geometry">
                        <mxPoint x="17" y="643" as="sourcePoint"/>
                        <mxPoint x="-1" y="711" as="targetPoint"/>
                    </mxGeometry>
                </mxCell>
                <mxCell id="mfv2O1PccH4M57eqfQ7O-379" value="" style="endArrow=none;html=1;rounded=0;entryX=0;entryY=0.5;entryDx=0;entryDy=0;exitX=1;exitY=0.5;exitDx=0;exitDy=0;" parent="1" edge="1">
                    <mxGeometry width="50" height="50" relative="1" as="geometry">
                        <mxPoint x="85" y="606" as="sourcePoint"/>
                        <mxPoint x="126" y="676" as="targetPoint"/>
                    </mxGeometry>
                </mxCell>
                <mxCell id="mfv2O1PccH4M57eqfQ7O-380" value="" style="group;rotation=-300;" parent="1" vertex="1" connectable="0">
                    <mxGeometry x="-20" y="595" width="80" as="geometry"/>
                </mxCell>
                <mxCell id="mfv2O1PccH4M57eqfQ7O-381" value="" style="endArrow=classic;startArrow=classic;html=1;rounded=0;" parent="mfv2O1PccH4M57eqfQ7O-380" edge="1">
                    <mxGeometry width="50" height="50" relative="1" as="geometry">
                        <mxPoint x="20" y="-35" as="sourcePoint"/>
                        <mxPoint x="40" y="1" as="targetPoint"/>
                    </mxGeometry>
                </mxCell>
                <mxCell id="mfv2O1PccH4M57eqfQ7O-382" value="" style="endArrow=classic;startArrow=classic;html=1;rounded=0;" parent="1" edge="1">
                    <mxGeometry width="50" height="50" relative="1" as="geometry">
                        <mxPoint x="73" y="522" as="sourcePoint"/>
                        <mxPoint x="93" y="557" as="targetPoint"/>
                    </mxGeometry>
                </mxCell>
                <mxCell id="mfv2O1PccH4M57eqfQ7O-383" value="" style="group;rotation=-120;" parent="1" vertex="1" connectable="0">
                    <mxGeometry x="181" y="465" width="80" height="40" as="geometry"/>
                </mxCell>
                <mxCell id="mfv2O1PccH4M57eqfQ7O-384" value="" style="rounded=0;whiteSpace=wrap;html=1;rotation=-120;" parent="mfv2O1PccH4M57eqfQ7O-383" vertex="1">
                    <mxGeometry x="30" y="17" width="40" height="40" as="geometry"/>
                </mxCell>
                <mxCell id="mfv2O1PccH4M57eqfQ7O-385" value="" style="rounded=0;whiteSpace=wrap;html=1;rotation=-120;" parent="mfv2O1PccH4M57eqfQ7O-383" vertex="1">
                    <mxGeometry x="10" y="-17" width="40" height="40" as="geometry"/>
                </mxCell>
                <mxCell id="mfv2O1PccH4M57eqfQ7O-386" value="" style="endArrow=none;html=1;rounded=0;entryX=0;entryY=0.5;entryDx=0;entryDy=0;exitX=1;exitY=0.5;exitDx=0;exitDy=0;" parent="1" edge="1">
                    <mxGeometry width="50" height="50" relative="1" as="geometry">
                        <mxPoint x="239" y="519" as="sourcePoint"/>
                        <mxPoint x="280" y="589" as="targetPoint"/>
                    </mxGeometry>
                </mxCell>
                <mxCell id="mfv2O1PccH4M57eqfQ7O-387" value="" style="endArrow=classic;startArrow=classic;html=1;rounded=0;" parent="1" edge="1">
                    <mxGeometry width="50" height="50" relative="1" as="geometry">
                        <mxPoint x="223.5" y="438.5" as="sourcePoint"/>
                        <mxPoint x="244.5" y="473.5" as="targetPoint"/>
                    </mxGeometry>
                </mxCell>
                <mxCell id="mfv2O1PccH4M57eqfQ7O-388" value="IMDBscore" style="ellipse;whiteSpace=wrap;html=1;rotation=-300;dashed=1;" parent="1" vertex="1">
                    <mxGeometry x="249" y="601" width="120" height="80" as="geometry"/>
                </mxCell>
                <mxCell id="mfv2O1PccH4M57eqfQ7O-389" value="" style="endArrow=none;html=1;rounded=0;exitX=1;exitY=0;exitDx=0;exitDy=0;" parent="1" source="mfv2O1PccH4M57eqfQ7O-390" edge="1">
                    <mxGeometry width="50" height="50" relative="1" as="geometry">
                        <mxPoint x="-1" y="456" as="sourcePoint"/>
                        <mxPoint x="47" y="537" as="targetPoint"/>
                    </mxGeometry>
                </mxCell>
                <mxCell id="mfv2O1PccH4M57eqfQ7O-390" value="" style="ellipse;whiteSpace=wrap;html=1;fillColor=#1900FF;strokeColor=#1900FF;rotation=-210;" parent="1" vertex="1">
                    <mxGeometry x="19" y="437" width="10" height="10" as="geometry"/>
                </mxCell>
                <mxCell id="mfv2O1PccH4M57eqfQ7O-395" value="" style="endArrow=none;html=1;rounded=0;startArrow=none;" parent="1" edge="1">
                    <mxGeometry width="50" height="50" relative="1" as="geometry">
                        <mxPoint x="-13" y="448" as="sourcePoint"/>
                        <mxPoint x="-37" y="567" as="targetPoint"/>
                    </mxGeometry>
                </mxCell>
                <mxCell id="mfv2O1PccH4M57eqfQ7O-396" value="" style="endArrow=none;html=1;rounded=0;" parent="1" edge="1">
                    <mxGeometry width="50" height="50" relative="1" as="geometry">
                        <mxPoint x="-37" y="565" as="sourcePoint"/>
                        <mxPoint x="-28.452830188679258" y="580.2340425531916" as="targetPoint"/>
                    </mxGeometry>
                </mxCell>
                <mxCell id="mfv2O1PccH4M57eqfQ7O-397" value="" style="ellipse;whiteSpace=wrap;html=1;fillColor=#1900FF;strokeColor=#1900FF;rotation=-210;" parent="1" vertex="1">
                    <mxGeometry x="-18" y="443" width="10" height="10" as="geometry"/>
                </mxCell>
                <mxCell id="mfv2O1PccH4M57eqfQ7O-392" value="" style="endArrow=none;html=1;rounded=0;startArrow=none;exitX=1;exitY=0.5;exitDx=0;exitDy=0;" parent="1" source="mfv2O1PccH4M57eqfQ7O-268" edge="1">
                    <mxGeometry width="50" height="50" relative="1" as="geometry">
                        <mxPoint x="94.17999999999984" y="387.6400000000001" as="sourcePoint"/>
                        <mxPoint x="184" y="420" as="targetPoint"/>
                    </mxGeometry>
                </mxCell>
                <mxCell id="mfv2O1PccH4M57eqfQ7O-393" value="" style="endArrow=none;html=1;rounded=0;" parent="1" edge="1">
                    <mxGeometry width="50" height="50" relative="1" as="geometry">
                        <mxPoint x="184" y="420" as="sourcePoint"/>
                        <mxPoint x="201" y="450" as="targetPoint"/>
                    </mxGeometry>
                </mxCell>
                <mxCell id="mfv2O1PccH4M57eqfQ7O-289" value="" style="ellipse;whiteSpace=wrap;html=1;fillColor=#1900FF;strokeColor=#1900FF;rotation=-180;" parent="1" vertex="1">
                    <mxGeometry x="81" y="383" width="10" height="10" as="geometry"/>
                </mxCell>
                <mxCell id="mfv2O1PccH4M57eqfQ7O-401" value="" style="group;rotation=-120;" parent="1" vertex="1" connectable="0">
                    <mxGeometry x="105" y="511" width="80" height="40" as="geometry"/>
                </mxCell>
                <mxCell id="mfv2O1PccH4M57eqfQ7O-402" value="" style="rounded=0;whiteSpace=wrap;html=1;rotation=-120;" parent="mfv2O1PccH4M57eqfQ7O-401" vertex="1">
                    <mxGeometry x="30" y="17" width="40" height="40" as="geometry"/>
                </mxCell>
                <mxCell id="mfv2O1PccH4M57eqfQ7O-403" value="" style="rounded=0;whiteSpace=wrap;html=1;rotation=-120;" parent="mfv2O1PccH4M57eqfQ7O-401" vertex="1">
                    <mxGeometry x="10" y="-17" width="40" height="40" as="geometry"/>
                </mxCell>
                <mxCell id="mfv2O1PccH4M57eqfQ7O-404" value="AgeRestriction" style="ellipse;whiteSpace=wrap;html=1;dashed=1;rotation=-300;" parent="1" vertex="1">
                    <mxGeometry x="174" y="647" width="120" height="80" as="geometry"/>
                </mxCell>
                <mxCell id="mfv2O1PccH4M57eqfQ7O-405" value="" style="endArrow=none;html=1;rounded=0;entryX=0;entryY=0.5;entryDx=0;entryDy=0;exitX=1;exitY=0.5;exitDx=0;exitDy=0;" parent="1" edge="1">
                    <mxGeometry width="50" height="50" relative="1" as="geometry">
                        <mxPoint x="163" y="565" as="sourcePoint"/>
                        <mxPoint x="204" y="635" as="targetPoint"/>
                    </mxGeometry>
                </mxCell>
                <mxCell id="mfv2O1PccH4M57eqfQ7O-406" value="" style="endArrow=classic;startArrow=classic;html=1;rounded=0;" parent="1" edge="1">
                    <mxGeometry width="50" height="50" relative="1" as="geometry">
                        <mxPoint x="151" y="481" as="sourcePoint"/>
                        <mxPoint x="171" y="516" as="targetPoint"/>
                    </mxGeometry>
                </mxCell>
                <mxCell id="mfv2O1PccH4M57eqfQ7O-407" value="" style="endArrow=none;html=1;rounded=0;exitX=0.89;exitY=0.812;exitDx=0;exitDy=0;exitPerimeter=0;" parent="1" source="mfv2O1PccH4M57eqfQ7O-268" edge="1">
                    <mxGeometry width="50" height="50" relative="1" as="geometry">
                        <mxPoint x="77" y="415" as="sourcePoint"/>
                        <mxPoint x="125" y="496" as="targetPoint"/>
                    </mxGeometry>
                </mxCell>
                <mxCell id="mfv2O1PccH4M57eqfQ7O-408" value="" style="ellipse;whiteSpace=wrap;html=1;fillColor=#1900FF;strokeColor=#1900FF;rotation=-210;" parent="1" vertex="1">
                    <mxGeometry x="58" y="419" width="10" height="10" as="geometry"/>
                </mxCell>
                <mxCell id="mfv2O1PccH4M57eqfQ7O-420" value="TimeTable&lt;br&gt;(time)" style="ellipse;whiteSpace=wrap;html=1;" parent="1" vertex="1">
                    <mxGeometry x="-147" y="-73" width="205" height="120" as="geometry"/>
                </mxCell>
                <mxCell id="mfv2O1PccH4M57eqfQ7O-421" value="Hall&lt;br&gt;(id)" style="ellipse;whiteSpace=wrap;html=1;" parent="1" vertex="1">
                    <mxGeometry x="293" y="-73" width="205" height="120" as="geometry"/>
                </mxCell>
                <mxCell id="38" value="User&lt;br&gt;(Email)" style="ellipse;whiteSpace=wrap;html=1;" parent="1" vertex="1">
                    <mxGeometry x="743" y="257" width="205" height="120" as="geometry"/>
                </mxCell>
                <mxCell id="39" value="" style="endArrow=none;html=1;rounded=0;entryX=0;entryY=0.5;entryDx=0;entryDy=0;" parent="1" target="41" edge="1">
                    <mxGeometry width="50" height="50" relative="1" as="geometry">
                        <mxPoint x="948" y="315.40999999999985" as="sourcePoint"/>
                        <mxPoint x="1009" y="315.40999999999997" as="targetPoint"/>
                    </mxGeometry>
                </mxCell>
                <mxCell id="40" value="" style="group" parent="1" vertex="1" connectable="0">
                    <mxGeometry x="1025" y="296" width="80" height="40" as="geometry"/>
                </mxCell>
                <mxCell id="41" value="" style="rounded=0;whiteSpace=wrap;html=1;" parent="40" vertex="1">
                    <mxGeometry width="40" height="40" as="geometry"/>
                </mxCell>
                <mxCell id="42" value="" style="rounded=0;whiteSpace=wrap;html=1;" parent="40" vertex="1">
                    <mxGeometry x="40" width="40" height="40" as="geometry"/>
                </mxCell>
                <mxCell id="43" value="Password" style="ellipse;whiteSpace=wrap;html=1;dashed=1;" parent="1" vertex="1">
                    <mxGeometry x="1185" y="276" width="120" height="80" as="geometry"/>
                </mxCell>
                <mxCell id="44" value="" style="endArrow=none;html=1;rounded=0;" parent="1" edge="1">
                    <mxGeometry width="50" height="50" relative="1" as="geometry">
                        <mxPoint x="1105.0000000000005" y="315.5799999999999" as="sourcePoint"/>
                        <mxPoint x="1185.0000000000005" y="316" as="targetPoint"/>
                    </mxGeometry>
                </mxCell>
                <mxCell id="59" value="" style="endArrow=classic;startArrow=classic;html=1;rounded=0;" parent="1" edge="1">
                    <mxGeometry width="50" height="50" relative="1" as="geometry">
                        <mxPoint x="1026" y="286" as="sourcePoint"/>
                        <mxPoint x="1067" y="286" as="targetPoint"/>
                    </mxGeometry>
                </mxCell>
                <mxCell id="65" value="" style="ellipse;whiteSpace=wrap;html=1;fillColor=#1900FF;strokeColor=#1900FF;" parent="1" vertex="1">
                    <mxGeometry x="943" y="311" width="10" height="10" as="geometry"/>
                </mxCell>
                <mxCell id="66" value="" style="group;rotation=-270;" parent="1" vertex="1" connectable="0">
                    <mxGeometry x="803" y="457" width="80" height="40" as="geometry"/>
                </mxCell>
                <mxCell id="67" value="" style="rounded=0;whiteSpace=wrap;html=1;rotation=-270;" parent="66" vertex="1">
                    <mxGeometry x="20" y="-20" width="40" height="40" as="geometry"/>
                </mxCell>
                <mxCell id="68" value="" style="rounded=0;whiteSpace=wrap;html=1;rotation=-270;" parent="66" vertex="1">
                    <mxGeometry x="20" y="20" width="40" height="40" as="geometry"/>
                </mxCell>
                <mxCell id="69" value="" style="endArrow=none;html=1;rounded=0;entryX=1;entryY=0.5;entryDx=0;entryDy=0;" parent="1" target="68" edge="1">
                    <mxGeometry width="50" height="50" relative="1" as="geometry">
                        <mxPoint x="843" y="577" as="sourcePoint"/>
                        <mxPoint x="842.6700000000001" y="548" as="targetPoint"/>
                    </mxGeometry>
                </mxCell>
                <mxCell id="70" value="" style="endArrow=none;html=1;rounded=0;startArrow=none;" parent="1" source="146" edge="1">
                    <mxGeometry width="50" height="50" relative="1" as="geometry">
                        <mxPoint x="843" y="437" as="sourcePoint"/>
                        <mxPoint x="843" y="378" as="targetPoint"/>
                    </mxGeometry>
                </mxCell>
                <mxCell id="98" value="" style="endArrow=classic;startArrow=classic;html=1;rounded=0;" parent="1" edge="1">
                    <mxGeometry width="50" height="50" relative="1" as="geometry">
                        <mxPoint x="813" y="478" as="sourcePoint"/>
                        <mxPoint x="813" y="437" as="targetPoint"/>
                    </mxGeometry>
                </mxCell>
                <mxCell id="131" value="" style="group" parent="1" vertex="1" connectable="0">
                    <mxGeometry x="934" y="182" width="371" height="105" as="geometry"/>
                </mxCell>
                <mxCell id="122" value="" style="group;rotation=180;" parent="131" vertex="1" connectable="0">
                    <mxGeometry x="91" y="19" width="80" height="40" as="geometry"/>
                </mxCell>
                <mxCell id="123" value="" style="rounded=0;whiteSpace=wrap;html=1;rotation=180;" parent="122" vertex="1">
                    <mxGeometry x="40" width="40" height="40" as="geometry"/>
                </mxCell>
                <mxCell id="124" value="" style="rounded=0;whiteSpace=wrap;html=1;rotation=180;" parent="122" vertex="1">
                    <mxGeometry width="40" height="40" as="geometry"/>
                </mxCell>
                <mxCell id="125" value="" style="endArrow=none;html=1;rounded=0;entryX=0;entryY=0.5;entryDx=0;entryDy=0;exitX=1;exitY=0.5;exitDx=0;exitDy=0;" parent="131" edge="1">
                    <mxGeometry width="50" height="50" relative="1" as="geometry">
                        <mxPoint x="171" y="40" as="sourcePoint"/>
                        <mxPoint x="251" y="40" as="targetPoint"/>
                    </mxGeometry>
                </mxCell>
                <mxCell id="126" value="" style="endArrow=classic;startArrow=classic;html=1;rounded=0;" parent="131" edge="1">
                    <mxGeometry width="50" height="50" relative="1" as="geometry">
                        <mxPoint x="91" y="9" as="sourcePoint"/>
                        <mxPoint x="129" y="9" as="targetPoint"/>
                    </mxGeometry>
                </mxCell>
                <mxCell id="127" value="PhoneNumber" style="ellipse;whiteSpace=wrap;html=1;rotation=0;dashed=1;" parent="131" vertex="1">
                    <mxGeometry x="251" width="120" height="80" as="geometry"/>
                </mxCell>
                <mxCell id="128" value="" style="endArrow=none;html=1;rounded=0;startArrow=none;endSize=0;" parent="131" edge="1">
                    <mxGeometry width="50" height="50" relative="1" as="geometry">
                        <mxPoint y="105" as="sourcePoint"/>
                        <mxPoint x="57" y="39" as="targetPoint"/>
                    </mxGeometry>
                </mxCell>
                <mxCell id="129" value="" style="endArrow=none;html=1;rounded=0;" parent="131" edge="1">
                    <mxGeometry width="50" height="50" relative="1" as="geometry">
                        <mxPoint x="57" y="39" as="sourcePoint"/>
                        <mxPoint x="91" y="39" as="targetPoint"/>
                    </mxGeometry>
                </mxCell>
                <mxCell id="48" value="" style="group;rotation=90;" parent="1" vertex="1" connectable="0">
                    <mxGeometry x="803" y="117" width="80" height="40" as="geometry"/>
                </mxCell>
                <mxCell id="49" value="" style="rounded=0;whiteSpace=wrap;html=1;rotation=90;" parent="48" vertex="1">
                    <mxGeometry x="20" y="-20" width="40" height="40" as="geometry"/>
                </mxCell>
                <mxCell id="50" value="" style="rounded=0;whiteSpace=wrap;html=1;rotation=90;" parent="48" vertex="1">
                    <mxGeometry x="20" y="20" width="40" height="40" as="geometry"/>
                </mxCell>
                <mxCell id="51" value="Name" style="ellipse;whiteSpace=wrap;html=1;dashed=1;rotation=-90;" parent="1" vertex="1">
                    <mxGeometry x="784" y="-83" width="120" height="80" as="geometry"/>
                </mxCell>
                <mxCell id="54" value="" style="endArrow=none;html=1;rounded=0;entryX=0;entryY=0.5;entryDx=0;entryDy=0;exitX=1;exitY=0.5;exitDx=0;exitDy=0;" parent="1" edge="1">
                    <mxGeometry width="50" height="50" relative="1" as="geometry">
                        <mxPoint x="843.5799999999999" y="97" as="sourcePoint"/>
                        <mxPoint x="843.5799999999999" y="17" as="targetPoint"/>
                    </mxGeometry>
                </mxCell>
                <mxCell id="64" value="" style="endArrow=classic;startArrow=classic;html=1;rounded=0;" parent="1" edge="1">
                    <mxGeometry width="50" height="50" relative="1" as="geometry">
                        <mxPoint x="813" y="177" as="sourcePoint"/>
                        <mxPoint x="813" y="137" as="targetPoint"/>
                    </mxGeometry>
                </mxCell>
                <mxCell id="87" value="" style="group;rotation=90;" parent="1" vertex="1" connectable="0">
                    <mxGeometry x="683" y="117" width="80" height="40" as="geometry"/>
                </mxCell>
                <mxCell id="88" value="" style="rounded=0;whiteSpace=wrap;html=1;rotation=90;" parent="87" vertex="1">
                    <mxGeometry x="20" y="-20" width="40" height="40" as="geometry"/>
                </mxCell>
                <mxCell id="89" value="" style="rounded=0;whiteSpace=wrap;html=1;rotation=90;" parent="87" vertex="1">
                    <mxGeometry x="20" y="20" width="40" height="40" as="geometry"/>
                </mxCell>
                <mxCell id="90" value="" style="endArrow=none;html=1;rounded=0;entryX=0;entryY=0.5;entryDx=0;entryDy=0;exitX=1;exitY=0.5;exitDx=0;exitDy=0;" parent="1" edge="1">
                    <mxGeometry width="50" height="50" relative="1" as="geometry">
                        <mxPoint x="723.5799999999999" y="97" as="sourcePoint"/>
                        <mxPoint x="723.5799999999999" y="17" as="targetPoint"/>
                    </mxGeometry>
                </mxCell>
                <mxCell id="91" value="" style="endArrow=classic;startArrow=classic;html=1;rounded=0;" parent="1" edge="1">
                    <mxGeometry width="50" height="50" relative="1" as="geometry">
                        <mxPoint x="693" y="177" as="sourcePoint"/>
                        <mxPoint x="693" y="137" as="targetPoint"/>
                    </mxGeometry>
                </mxCell>
                <mxCell id="92" value="Birthdate" style="ellipse;whiteSpace=wrap;html=1;rotation=-90;dashed=1;" parent="1" vertex="1">
                    <mxGeometry x="664" y="-83" width="120" height="80" as="geometry"/>
                </mxCell>
                <mxCell id="99" value="" style="endArrow=none;html=1;rounded=0;" parent="1" edge="1">
                    <mxGeometry width="50" height="50" relative="1" as="geometry">
                        <mxPoint x="843" y="257" as="sourcePoint"/>
                        <mxPoint x="843" y="177" as="targetPoint"/>
                    </mxGeometry>
                </mxCell>
                <mxCell id="100" value="" style="ellipse;whiteSpace=wrap;html=1;fillColor=#1900FF;strokeColor=#1900FF;" parent="1" vertex="1">
                    <mxGeometry x="838" y="252" width="10" height="10" as="geometry"/>
                </mxCell>
                <mxCell id="101" value="" style="group" parent="1" vertex="1" connectable="0">
                    <mxGeometry x="723" y="177" width="50" height="80" as="geometry"/>
                </mxCell>
                <mxCell id="102" value="" style="endArrow=none;html=1;rounded=0;startArrow=none;" parent="101" source="142" edge="1">
                    <mxGeometry width="50" height="50" relative="1" as="geometry">
                        <mxPoint x="50" y="80" as="sourcePoint"/>
                        <mxPoint y="28.18333333333333" as="targetPoint"/>
                    </mxGeometry>
                </mxCell>
                <mxCell id="103" value="" style="endArrow=none;html=1;rounded=0;" parent="101" edge="1">
                    <mxGeometry width="50" height="50" relative="1" as="geometry">
                        <mxPoint y="28.333333333333336" as="sourcePoint"/>
                        <mxPoint as="targetPoint"/>
                    </mxGeometry>
                </mxCell>
                <mxCell id="mfv2O1PccH4M57eqfQ7O-429" value="" style="group;rotation=90;" parent="1" vertex="1" connectable="0">
                    <mxGeometry x="234.5" y="-213" width="80" height="40" as="geometry"/>
                </mxCell>
                <mxCell id="mfv2O1PccH4M57eqfQ7O-430" value="" style="rounded=0;whiteSpace=wrap;html=1;rotation=90;" parent="mfv2O1PccH4M57eqfQ7O-429" vertex="1">
                    <mxGeometry x="20" y="-20" width="40" height="40" as="geometry"/>
                </mxCell>
                <mxCell id="mfv2O1PccH4M57eqfQ7O-431" value="" style="rounded=0;whiteSpace=wrap;html=1;rotation=90;" parent="mfv2O1PccH4M57eqfQ7O-429" vertex="1">
                    <mxGeometry x="20" y="20" width="40" height="40" as="geometry"/>
                </mxCell>
                <mxCell id="mfv2O1PccH4M57eqfQ7O-432" value="" style="endArrow=none;html=1;rounded=0;entryX=0;entryY=0.5;entryDx=0;entryDy=0;exitX=1;exitY=0.5;exitDx=0;exitDy=0;" parent="1" edge="1">
                    <mxGeometry width="50" height="50" relative="1" as="geometry">
                        <mxPoint x="275.0799999999999" y="-233" as="sourcePoint"/>
                        <mxPoint x="275.0799999999999" y="-313" as="targetPoint"/>
                    </mxGeometry>
                </mxCell>
                <mxCell id="mfv2O1PccH4M57eqfQ7O-433" value="" style="endArrow=classic;startArrow=classic;html=1;rounded=0;" parent="1" edge="1">
                    <mxGeometry width="50" height="50" relative="1" as="geometry">
                        <mxPoint x="244.5" y="-153" as="sourcePoint"/>
                        <mxPoint x="244.5" y="-193" as="targetPoint"/>
                    </mxGeometry>
                </mxCell>
                <mxCell id="mfv2O1PccH4M57eqfQ7O-434" value="Capacity" style="ellipse;whiteSpace=wrap;html=1;rotation=-90;dashed=1;" parent="1" vertex="1">
                    <mxGeometry x="215.5" y="-413" width="120" height="80" as="geometry"/>
                </mxCell>
                <mxCell id="mfv2O1PccH4M57eqfQ7O-435" value="" style="endArrow=none;html=1;rounded=0;startArrow=none;" parent="1" source="313" edge="1">
                    <mxGeometry width="50" height="50" relative="1" as="geometry">
                        <mxPoint x="327.5" y="-57" as="sourcePoint"/>
                        <mxPoint x="274.5" y="-119.17999999999984" as="targetPoint"/>
                    </mxGeometry>
                </mxCell>
                <mxCell id="mfv2O1PccH4M57eqfQ7O-436" value="" style="endArrow=none;html=1;rounded=0;" parent="1" edge="1">
                    <mxGeometry width="50" height="50" relative="1" as="geometry">
                        <mxPoint x="274.5" y="-119" as="sourcePoint"/>
                        <mxPoint x="274.5" y="-153" as="targetPoint"/>
                    </mxGeometry>
                </mxCell>
                <mxCell id="mfv2O1PccH4M57eqfQ7O-447" value="Seat&lt;br&gt;(id)" style="ellipse;whiteSpace=wrap;html=1;rotation=0;" parent="1" vertex="1">
                    <mxGeometry x="533" y="492" width="120" height="80" as="geometry"/>
                </mxCell>
                <mxCell id="mfv2O1PccH4M57eqfQ7O-448" value="" style="endArrow=none;html=1;rounded=0;entryX=0;entryY=0.5;entryDx=0;entryDy=0;" parent="1" target="mfv2O1PccH4M57eqfQ7O-466" edge="1">
                    <mxGeometry width="50" height="50" relative="1" as="geometry">
                        <mxPoint x="315.5" y="27" as="sourcePoint"/>
                        <mxPoint x="235.5" y="27" as="targetPoint"/>
                    </mxGeometry>
                </mxCell>
                <mxCell id="mfv2O1PccH4M57eqfQ7O-469" value="" style="group;rotation=-230;" parent="1" vertex="1" connectable="0">
                    <mxGeometry x="133" y="157" width="121" height="60" as="geometry"/>
                </mxCell>
                <mxCell id="mfv2O1PccH4M57eqfQ7O-466" value="" style="rounded=0;whiteSpace=wrap;html=1;container=0;rotation=-230;" parent="mfv2O1PccH4M57eqfQ7O-469" vertex="1">
                    <mxGeometry x="59" y="-27" width="40" height="40" as="geometry"/>
                </mxCell>
                <mxCell id="mfv2O1PccH4M57eqfQ7O-456" value="" style="endArrow=classic;startArrow=classic;html=1;rounded=0;" parent="mfv2O1PccH4M57eqfQ7O-469" edge="1">
                    <mxGeometry width="50" height="50" relative="1" as="geometry">
                        <mxPoint x="92" y="26" as="sourcePoint"/>
                        <mxPoint x="37" y="90" as="targetPoint"/>
                    </mxGeometry>
                </mxCell>
                <mxCell id="mfv2O1PccH4M57eqfQ7O-467" value="" style="endArrow=classic;startArrow=classic;html=1;rounded=0;" parent="mfv2O1PccH4M57eqfQ7O-469" edge="1">
                    <mxGeometry width="50" height="50" relative="1" as="geometry">
                        <mxPoint x="122" y="3" as="sourcePoint"/>
                        <mxPoint x="68" y="67" as="targetPoint"/>
                    </mxGeometry>
                </mxCell>
                <mxCell id="mfv2O1PccH4M57eqfQ7O-452" value="" style="rounded=0;whiteSpace=wrap;html=1;container=0;rotation=-230;" parent="mfv2O1PccH4M57eqfQ7O-469" vertex="1">
                    <mxGeometry x="34" y="2" width="40" height="40" as="geometry"/>
                </mxCell>
                <mxCell id="mfv2O1PccH4M57eqfQ7O-453" value="" style="rounded=0;whiteSpace=wrap;html=1;container=0;rotation=-230;" parent="mfv2O1PccH4M57eqfQ7O-469" vertex="1">
                    <mxGeometry x="8" y="33" width="40" height="40" as="geometry"/>
                </mxCell>
                <mxCell id="mfv2O1PccH4M57eqfQ7O-470" value="" style="endArrow=none;html=1;rounded=0;entryX=0.824;entryY=0.13;entryDx=0;entryDy=0;entryPerimeter=0;" parent="1" target="mfv2O1PccH4M57eqfQ7O-268" edge="1">
                    <mxGeometry width="50" height="50" relative="1" as="geometry">
                        <mxPoint x="148.64" y="227.32" as="sourcePoint"/>
                        <mxPoint x="53" y="337" as="targetPoint"/>
                    </mxGeometry>
                </mxCell>
                <mxCell id="mfv2O1PccH4M57eqfQ7O-471" value="" style="endArrow=none;html=1;rounded=0;entryX=1;entryY=1;entryDx=0;entryDy=0;exitX=0.5;exitY=1;exitDx=0;exitDy=0;" parent="1" source="mfv2O1PccH4M57eqfQ7O-452" target="mfv2O1PccH4M57eqfQ7O-420" edge="1">
                    <mxGeometry width="50" height="50" relative="1" as="geometry">
                        <mxPoint x="53" y="77" as="sourcePoint"/>
                        <mxPoint x="103" y="27" as="targetPoint"/>
                    </mxGeometry>
                </mxCell>
                <mxCell id="142" value="" style="ellipse;whiteSpace=wrap;html=1;fillColor=#1900FF;strokeColor=#1900FF;" parent="1" vertex="1">
                    <mxGeometry x="774" y="266" width="10" height="10" as="geometry"/>
                </mxCell>
                <mxCell id="145" value="Admin&lt;br&gt;(code)&lt;br&gt;{&quot;True&quot;,&quot;False&quot;}" style="ellipse;whiteSpace=wrap;html=1;dashed=1;" parent="1" vertex="1">
                    <mxGeometry x="783" y="574" width="120" height="80" as="geometry"/>
                </mxCell>
                <mxCell id="146" value="" style="ellipse;whiteSpace=wrap;html=1;fillColor=#1900FF;strokeColor=#1900FF;" parent="1" vertex="1">
                    <mxGeometry x="838" y="373" width="10" height="10" as="geometry"/>
                </mxCell>
                <mxCell id="147" value="" style="endArrow=none;html=1;rounded=0;" parent="1" target="146" edge="1">
                    <mxGeometry width="50" height="50" relative="1" as="geometry">
                        <mxPoint x="843" y="437" as="sourcePoint"/>
                        <mxPoint x="843" y="378" as="targetPoint"/>
                    </mxGeometry>
                </mxCell>
                <mxCell id="148" value="" style="endArrow=none;html=1;rounded=0;" parent="1" edge="1">
                    <mxGeometry width="50" height="50" relative="1" as="geometry">
                        <mxPoint x="-120" y="130" as="sourcePoint"/>
                        <mxPoint x="-162" y="130" as="targetPoint"/>
                    </mxGeometry>
                </mxCell>
                <mxCell id="152" value="MovieName" style="ellipse;whiteSpace=wrap;html=1;dashed=1;" parent="1" vertex="1">
                    <mxGeometry x="-480" y="90" width="120" height="80" as="geometry"/>
                </mxCell>
                <mxCell id="153" value="" style="endArrow=none;html=1;rounded=0;" parent="1" edge="1">
                    <mxGeometry width="50" height="50" relative="1" as="geometry">
                        <mxPoint x="-279" y="127.57999999999993" as="sourcePoint"/>
                        <mxPoint x="-359" y="128" as="targetPoint"/>
                    </mxGeometry>
                </mxCell>
                <mxCell id="154" value="" style="endArrow=none;html=1;rounded=0;startArrow=none;exitX=0.5;exitY=0;exitDx=0;exitDy=0;" parent="1" source="156" edge="1">
                    <mxGeometry width="50" height="50" relative="1" as="geometry">
                        <mxPoint x="-48.80000000000018" y="241.36000000000013" as="sourcePoint"/>
                        <mxPoint x="-120" y="130" as="targetPoint"/>
                    </mxGeometry>
                </mxCell>
                <mxCell id="157" value="" style="endArrow=classic;startArrow=classic;html=1;rounded=0;" parent="1" edge="1">
                    <mxGeometry width="50" height="50" relative="1" as="geometry">
                        <mxPoint x="-237.5" y="228" as="sourcePoint"/>
                        <mxPoint x="-196.5" y="228" as="targetPoint"/>
                    </mxGeometry>
                </mxCell>
                <mxCell id="156" value="" style="ellipse;whiteSpace=wrap;html=1;fillColor=#1900FF;strokeColor=#1900FF;" parent="1" vertex="1">
                    <mxGeometry x="-21" y="321" width="10" height="10" as="geometry"/>
                </mxCell>
                <mxCell id="162" value="" style="group;rotation=-120;" parent="1" vertex="1" connectable="0">
                    <mxGeometry x="253" y="422" width="80" height="40" as="geometry"/>
                </mxCell>
                <mxCell id="163" value="" style="rounded=0;whiteSpace=wrap;html=1;rotation=-120;" parent="162" vertex="1">
                    <mxGeometry x="30" y="17" width="40" height="40" as="geometry"/>
                </mxCell>
                <mxCell id="164" value="" style="rounded=0;whiteSpace=wrap;html=1;rotation=-120;" parent="162" vertex="1">
                    <mxGeometry x="10" y="-17" width="40" height="40" as="geometry"/>
                </mxCell>
                <mxCell id="165" value="" style="endArrow=none;html=1;rounded=0;entryX=0;entryY=0.5;entryDx=0;entryDy=0;exitX=1;exitY=0.5;exitDx=0;exitDy=0;" parent="1" edge="1">
                    <mxGeometry width="50" height="50" relative="1" as="geometry">
                        <mxPoint x="313" y="477" as="sourcePoint"/>
                        <mxPoint x="354" y="547" as="targetPoint"/>
                    </mxGeometry>
                </mxCell>
                <mxCell id="166" value="" style="endArrow=classic;startArrow=classic;html=1;rounded=0;" parent="1" edge="1">
                    <mxGeometry width="50" height="50" relative="1" as="geometry">
                        <mxPoint x="295.5" y="395.5" as="sourcePoint"/>
                        <mxPoint x="316.5" y="430.5" as="targetPoint"/>
                    </mxGeometry>
                </mxCell>
                <mxCell id="167" value="" style="endArrow=none;html=1;rounded=0;" parent="1" edge="1">
                    <mxGeometry width="50" height="50" relative="1" as="geometry">
                        <mxPoint x="233" y="367" as="sourcePoint"/>
                        <mxPoint x="273" y="407" as="targetPoint"/>
                    </mxGeometry>
                </mxCell>
                <mxCell id="168" value="Directors" style="ellipse;whiteSpace=wrap;html=1;rotation=-300;dashed=1;" parent="1" vertex="1">
                    <mxGeometry x="323" y="557" width="120" height="80" as="geometry"/>
                </mxCell>
                <mxCell id="170" value="" style="endArrow=none;html=1;rounded=0;startArrow=none;exitX=0;exitY=0.5;exitDx=0;exitDy=0;" parent="1" source="171" edge="1">
                    <mxGeometry width="50" height="50" relative="1" as="geometry">
                        <mxPoint x="118.00000000000114" y="334" as="sourcePoint"/>
                        <mxPoint x="233" y="367" as="targetPoint"/>
                    </mxGeometry>
                </mxCell>
                <mxCell id="171" value="" style="ellipse;whiteSpace=wrap;html=1;fillColor=#1900FF;strokeColor=#1900FF;rotation=-180;" parent="1" vertex="1">
                    <mxGeometry x="68" y="352" width="10" height="10" as="geometry"/>
                </mxCell>
                <mxCell id="172" value="Genre" style="ellipse;whiteSpace=wrap;html=1;dashed=1;" parent="1" vertex="1">
                    <mxGeometry x="-476.5" y="477" width="120" height="80" as="geometry"/>
                </mxCell>
                <mxCell id="173" value="" style="endArrow=none;html=1;rounded=0;" parent="1" edge="1">
                    <mxGeometry width="50" height="50" relative="1" as="geometry">
                        <mxPoint x="-117" y="703.81" as="sourcePoint"/>
                        <mxPoint x="-197" y="703.4699999999998" as="targetPoint"/>
                    </mxGeometry>
                </mxCell>
                <mxCell id="174" value="" style="group" parent="1" vertex="1" connectable="0">
                    <mxGeometry x="-277" y="684" width="80" height="40" as="geometry"/>
                </mxCell>
                <mxCell id="175" value="" style="rounded=0;whiteSpace=wrap;html=1;" parent="174" vertex="1">
                    <mxGeometry width="40" height="40" as="geometry"/>
                </mxCell>
                <mxCell id="176" value="" style="rounded=0;whiteSpace=wrap;html=1;" parent="174" vertex="1">
                    <mxGeometry x="40" width="40" height="40" as="geometry"/>
                </mxCell>
                <mxCell id="177" value="" style="endArrow=none;html=1;rounded=0;" parent="1" edge="1">
                    <mxGeometry width="50" height="50" relative="1" as="geometry">
                        <mxPoint x="-277" y="703.5799999999999" as="sourcePoint"/>
                        <mxPoint x="-357" y="704" as="targetPoint"/>
                    </mxGeometry>
                </mxCell>
                <mxCell id="178" value="" style="endArrow=classic;startArrow=classic;html=1;rounded=0;" parent="1" edge="1">
                    <mxGeometry width="50" height="50" relative="1" as="geometry">
                        <mxPoint x="-237" y="674" as="sourcePoint"/>
                        <mxPoint x="-197" y="674" as="targetPoint"/>
                    </mxGeometry>
                </mxCell>
                <mxCell id="179" value="" style="endArrow=none;html=1;rounded=0;entryX=1;entryY=0;entryDx=0;entryDy=0;" parent="1" target="180" edge="1">
                    <mxGeometry width="50" height="50" relative="1" as="geometry">
                        <mxPoint x="-117" y="704" as="sourcePoint"/>
                        <mxPoint x="-49.30000000000018" y="630.6399999999999" as="targetPoint"/>
                    </mxGeometry>
                </mxCell>
                <mxCell id="180" value="" style="ellipse;whiteSpace=wrap;html=1;fillColor=#1900FF;strokeColor=#1900FF;" parent="1" vertex="1">
                    <mxGeometry x="-37" y="443" width="10" height="10" as="geometry"/>
                </mxCell>
                <mxCell id="182" value="" style="group" parent="1" vertex="1" connectable="0">
                    <mxGeometry x="-277" y="594" width="80" height="40" as="geometry"/>
                </mxCell>
                <mxCell id="183" value="" style="rounded=0;whiteSpace=wrap;html=1;" parent="182" vertex="1">
                    <mxGeometry width="40" height="40" as="geometry"/>
                </mxCell>
                <mxCell id="184" value="" style="rounded=0;whiteSpace=wrap;html=1;" parent="182" vertex="1">
                    <mxGeometry x="40" width="40" height="40" as="geometry"/>
                </mxCell>
                <mxCell id="185" value="Duration" style="ellipse;whiteSpace=wrap;html=1;dashed=1;" parent="1" vertex="1">
                    <mxGeometry x="-477" y="574" width="120" height="80" as="geometry"/>
                </mxCell>
                <mxCell id="186" value="" style="endArrow=none;html=1;rounded=0;" parent="1" edge="1">
                    <mxGeometry width="50" height="50" relative="1" as="geometry">
                        <mxPoint x="-277" y="613.5799999999999" as="sourcePoint"/>
                        <mxPoint x="-357" y="614" as="targetPoint"/>
                    </mxGeometry>
                </mxCell>
                <mxCell id="187" value="" style="endArrow=classic;startArrow=classic;html=1;rounded=0;" parent="1" edge="1">
                    <mxGeometry width="50" height="50" relative="1" as="geometry">
                        <mxPoint x="-238.00000000000023" y="584" as="sourcePoint"/>
                        <mxPoint x="-197" y="584" as="targetPoint"/>
                    </mxGeometry>
                </mxCell>
                <mxCell id="188" value="" style="ellipse;whiteSpace=wrap;html=1;fillColor=#1900FF;strokeColor=#1900FF;" parent="1" vertex="1">
                    <mxGeometry x="-61" y="437" width="10" height="10" as="geometry"/>
                </mxCell>
                <mxCell id="189" value="Poster" style="ellipse;whiteSpace=wrap;html=1;dashed=1;" parent="1" vertex="1">
                    <mxGeometry x="-476.5" y="664" width="120" height="80" as="geometry"/>
                </mxCell>
                <mxCell id="190" value="" style="endArrow=none;html=1;rounded=0;" parent="1" edge="1">
                    <mxGeometry width="50" height="50" relative="1" as="geometry">
                        <mxPoint x="-116.5" y="617.3400000000001" as="sourcePoint"/>
                        <mxPoint x="-196.5" y="617" as="targetPoint"/>
                    </mxGeometry>
                </mxCell>
                <mxCell id="191" value="" style="endArrow=none;html=1;rounded=0;entryX=0.5;entryY=1;entryDx=0;entryDy=0;" parent="1" target="188" edge="1">
                    <mxGeometry width="50" height="50" relative="1" as="geometry">
                        <mxPoint x="-117" y="617" as="sourcePoint"/>
                        <mxPoint x="-61" y="522.8400000000001" as="targetPoint"/>
                    </mxGeometry>
                </mxCell>
                <mxCell id="198" value="" style="group;rotation=90;" parent="1" vertex="1" connectable="0">
                    <mxGeometry x="472" y="322" width="80" height="40" as="geometry"/>
                </mxCell>
                <mxCell id="199" value="" style="rounded=0;whiteSpace=wrap;html=1;rotation=90;" parent="198" vertex="1">
                    <mxGeometry x="20" y="-20" width="40" height="40" as="geometry"/>
                </mxCell>
                <mxCell id="200" value="" style="rounded=0;whiteSpace=wrap;html=1;rotation=90;" parent="198" vertex="1">
                    <mxGeometry x="20" y="20" width="40" height="40" as="geometry"/>
                </mxCell>
                <mxCell id="201" value="" style="endArrow=none;html=1;rounded=0;entryX=0;entryY=0.5;entryDx=0;entryDy=0;exitX=1;exitY=0.5;exitDx=0;exitDy=0;" parent="1" edge="1">
                    <mxGeometry width="50" height="50" relative="1" as="geometry">
                        <mxPoint x="512.5799999999999" y="302" as="sourcePoint"/>
                        <mxPoint x="512.5799999999999" y="222" as="targetPoint"/>
                    </mxGeometry>
                </mxCell>
                <mxCell id="203" value="timeTableId" style="ellipse;whiteSpace=wrap;html=1;rotation=-90;dashed=1;" parent="1" vertex="1">
                    <mxGeometry x="453" y="122" width="120" height="80" as="geometry"/>
                </mxCell>
                <mxCell id="206" value="" style="group" parent="1" vertex="1" connectable="0">
                    <mxGeometry x="512" y="382" width="50" height="80" as="geometry"/>
                </mxCell>
                <mxCell id="207" value="" style="endArrow=none;html=1;rounded=0;startArrow=none;" parent="206" source="209" edge="1">
                    <mxGeometry width="50" height="50" relative="1" as="geometry">
                        <mxPoint x="50" y="80" as="sourcePoint"/>
                        <mxPoint y="28.18333333333333" as="targetPoint"/>
                    </mxGeometry>
                </mxCell>
                <mxCell id="208" value="" style="endArrow=none;html=1;rounded=0;" parent="206" edge="1">
                    <mxGeometry width="50" height="50" relative="1" as="geometry">
                        <mxPoint y="28.333333333333336" as="sourcePoint"/>
                        <mxPoint as="targetPoint"/>
                    </mxGeometry>
                </mxCell>
                <mxCell id="209" value="" style="ellipse;whiteSpace=wrap;html=1;fillColor=#1900FF;strokeColor=#1900FF;" parent="1" vertex="1">
                    <mxGeometry x="588" y="487" width="10" height="10" as="geometry"/>
                </mxCell>
                <mxCell id="220" value="" style="group;rotation=90;" parent="1" vertex="1" connectable="0">
                    <mxGeometry x="70" y="-230" width="80" height="40" as="geometry"/>
                </mxCell>
                <mxCell id="221" value="" style="rounded=0;whiteSpace=wrap;html=1;rotation=90;" parent="220" vertex="1">
                    <mxGeometry x="20" y="-20" width="40" height="40" as="geometry"/>
                </mxCell>
                <mxCell id="222" value="" style="rounded=0;whiteSpace=wrap;html=1;rotation=90;" parent="220" vertex="1">
                    <mxGeometry x="20" y="20" width="40" height="40" as="geometry"/>
                </mxCell>
                <mxCell id="223" value="" style="endArrow=none;html=1;rounded=0;entryX=0;entryY=0.5;entryDx=0;entryDy=0;exitX=1;exitY=0.5;exitDx=0;exitDy=0;" parent="1" edge="1">
                    <mxGeometry width="50" height="50" relative="1" as="geometry">
                        <mxPoint x="110.57999999999993" y="-250" as="sourcePoint"/>
                        <mxPoint x="110.57999999999993" y="-330" as="targetPoint"/>
                    </mxGeometry>
                </mxCell>
                <mxCell id="224" value="" style="endArrow=classic;startArrow=classic;html=1;rounded=0;" parent="1" edge="1">
                    <mxGeometry width="50" height="50" relative="1" as="geometry">
                        <mxPoint x="80" y="-170" as="sourcePoint"/>
                        <mxPoint x="80" y="-210" as="targetPoint"/>
                    </mxGeometry>
                </mxCell>
                <mxCell id="225" value="Day" style="ellipse;whiteSpace=wrap;html=1;rotation=-90;dashed=1;" parent="1" vertex="1">
                    <mxGeometry x="51" y="-430" width="120" height="80" as="geometry"/>
                </mxCell>
                <mxCell id="226" value="" style="group" parent="1" vertex="1" connectable="0">
                    <mxGeometry x="110" y="-170" width="50" height="80" as="geometry"/>
                </mxCell>
                <mxCell id="227" value="" style="endArrow=none;html=1;rounded=0;startArrow=none;" parent="226" source="229" edge="1">
                    <mxGeometry width="50" height="50" relative="1" as="geometry">
                        <mxPoint x="50" y="80" as="sourcePoint"/>
                        <mxPoint y="28.18333333333333" as="targetPoint"/>
                    </mxGeometry>
                </mxCell>
                <mxCell id="228" value="" style="endArrow=none;html=1;rounded=0;" parent="226" edge="1">
                    <mxGeometry width="50" height="50" relative="1" as="geometry">
                        <mxPoint y="28.333333333333336" as="sourcePoint"/>
                        <mxPoint as="targetPoint"/>
                    </mxGeometry>
                </mxCell>
                <mxCell id="229" value="" style="ellipse;whiteSpace=wrap;html=1;fillColor=#1900FF;strokeColor=#1900FF;" parent="1" vertex="1">
                    <mxGeometry x="27" y="-60" width="10" height="10" as="geometry"/>
                </mxCell>
                <mxCell id="241" value="Movie reserved&lt;br&gt;(id)" style="ellipse;whiteSpace=wrap;html=1;" parent="1" vertex="1">
                    <mxGeometry x="532" y="-510" width="205" height="120" as="geometry"/>
                </mxCell>
                <mxCell id="242" value="" style="endArrow=none;html=1;rounded=0;entryX=0;entryY=0.5;entryDx=0;entryDy=0;" parent="1" target="244" edge="1">
                    <mxGeometry width="50" height="50" relative="1" as="geometry">
                        <mxPoint x="737" y="-451.59000000000015" as="sourcePoint"/>
                        <mxPoint x="798" y="-451.59000000000003" as="targetPoint"/>
                    </mxGeometry>
                </mxCell>
                <mxCell id="243" value="" style="group" parent="1" vertex="1" connectable="0">
                    <mxGeometry x="814" y="-471" width="80" height="40" as="geometry"/>
                </mxCell>
                <mxCell id="244" value="" style="rounded=0;whiteSpace=wrap;html=1;" parent="243" vertex="1">
                    <mxGeometry width="40" height="40" as="geometry"/>
                </mxCell>
                <mxCell id="245" value="" style="rounded=0;whiteSpace=wrap;html=1;" parent="243" vertex="1">
                    <mxGeometry x="40" width="40" height="40" as="geometry"/>
                </mxCell>
                <mxCell id="246" value="seatNumber" style="ellipse;whiteSpace=wrap;html=1;dashed=1;" parent="1" vertex="1">
                    <mxGeometry x="974" y="-491" width="120" height="80" as="geometry"/>
                </mxCell>
                <mxCell id="247" value="" style="endArrow=none;html=1;rounded=0;" parent="1" edge="1">
                    <mxGeometry width="50" height="50" relative="1" as="geometry">
                        <mxPoint x="894.0000000000005" y="-451.4200000000001" as="sourcePoint"/>
                        <mxPoint x="974.0000000000005" y="-451" as="targetPoint"/>
                    </mxGeometry>
                </mxCell>
                <mxCell id="248" value="" style="endArrow=classic;startArrow=classic;html=1;rounded=0;" parent="1" edge="1">
                    <mxGeometry width="50" height="50" relative="1" as="geometry">
                        <mxPoint x="814.9999999999995" y="-481" as="sourcePoint"/>
                        <mxPoint x="856" y="-481" as="targetPoint"/>
                    </mxGeometry>
                </mxCell>
                <mxCell id="249" value="" style="ellipse;whiteSpace=wrap;html=1;fillColor=#1900FF;strokeColor=#1900FF;" parent="1" vertex="1">
                    <mxGeometry x="732" y="-456" width="10" height="10" as="geometry"/>
                </mxCell>
                <mxCell id="250" value="" style="group;rotation=-270;" parent="1" vertex="1" connectable="0">
                    <mxGeometry x="592" y="-310" width="80" height="40" as="geometry"/>
                </mxCell>
                <mxCell id="251" value="" style="rounded=0;whiteSpace=wrap;html=1;rotation=-270;" parent="250" vertex="1">
                    <mxGeometry x="20" y="-20" width="40" height="40" as="geometry"/>
                </mxCell>
                <mxCell id="252" value="" style="rounded=0;whiteSpace=wrap;html=1;rotation=-270;" parent="250" vertex="1">
                    <mxGeometry x="20" y="20" width="40" height="40" as="geometry"/>
                </mxCell>
                <mxCell id="253" value="" style="endArrow=none;html=1;rounded=0;entryX=1;entryY=0.5;entryDx=0;entryDy=0;" parent="1" target="252" edge="1">
                    <mxGeometry width="50" height="50" relative="1" as="geometry">
                        <mxPoint x="632" y="-190" as="sourcePoint"/>
                        <mxPoint x="631.6700000000001" y="-219" as="targetPoint"/>
                    </mxGeometry>
                </mxCell>
                <mxCell id="254" value="" style="endArrow=none;html=1;rounded=0;startArrow=none;" parent="1" source="284" edge="1">
                    <mxGeometry width="50" height="50" relative="1" as="geometry">
                        <mxPoint x="632" y="-330" as="sourcePoint"/>
                        <mxPoint x="632" y="-389" as="targetPoint"/>
                    </mxGeometry>
                </mxCell>
                <mxCell id="255" value="" style="endArrow=classic;startArrow=classic;html=1;rounded=0;" parent="1" edge="1">
                    <mxGeometry width="50" height="50" relative="1" as="geometry">
                        <mxPoint x="602" y="-289" as="sourcePoint"/>
                        <mxPoint x="602" y="-330" as="targetPoint"/>
                    </mxGeometry>
                </mxCell>
                <mxCell id="271" value="" style="group;rotation=90;" parent="1" vertex="1" connectable="0">
                    <mxGeometry x="472" y="-650" width="80" height="40" as="geometry"/>
                </mxCell>
                <mxCell id="272" value="" style="rounded=0;whiteSpace=wrap;html=1;rotation=90;" parent="271" vertex="1">
                    <mxGeometry x="20" y="-20" width="40" height="40" as="geometry"/>
                </mxCell>
                <mxCell id="273" value="" style="rounded=0;whiteSpace=wrap;html=1;rotation=90;" parent="271" vertex="1">
                    <mxGeometry x="20" y="20" width="40" height="40" as="geometry"/>
                </mxCell>
                <mxCell id="274" value="" style="endArrow=none;html=1;rounded=0;entryX=0;entryY=0.5;entryDx=0;entryDy=0;exitX=1;exitY=0.5;exitDx=0;exitDy=0;" parent="1" edge="1">
                    <mxGeometry width="50" height="50" relative="1" as="geometry">
                        <mxPoint x="512.5799999999999" y="-670" as="sourcePoint"/>
                        <mxPoint x="512.5799999999999" y="-750" as="targetPoint"/>
                    </mxGeometry>
                </mxCell>
                <mxCell id="275" value="" style="endArrow=classic;startArrow=classic;html=1;rounded=0;" parent="1" edge="1">
                    <mxGeometry width="50" height="50" relative="1" as="geometry">
                        <mxPoint x="482" y="-590" as="sourcePoint"/>
                        <mxPoint x="482" y="-630" as="targetPoint"/>
                    </mxGeometry>
                </mxCell>
                <mxCell id="276" value="hour" style="ellipse;whiteSpace=wrap;html=1;rotation=-90;dashed=1;" parent="1" vertex="1">
                    <mxGeometry x="453" y="-850" width="120" height="80" as="geometry"/>
                </mxCell>
                <mxCell id="279" value="" style="group" parent="1" vertex="1" connectable="0">
                    <mxGeometry x="512" y="-590" width="50" height="80" as="geometry"/>
                </mxCell>
                <mxCell id="280" value="" style="endArrow=none;html=1;rounded=0;startArrow=none;" parent="279" source="282" edge="1">
                    <mxGeometry width="50" height="50" relative="1" as="geometry">
                        <mxPoint x="50" y="80" as="sourcePoint"/>
                        <mxPoint y="28.18333333333333" as="targetPoint"/>
                    </mxGeometry>
                </mxCell>
                <mxCell id="281" value="" style="endArrow=none;html=1;rounded=0;" parent="279" edge="1">
                    <mxGeometry width="50" height="50" relative="1" as="geometry">
                        <mxPoint y="28.333333333333336" as="sourcePoint"/>
                        <mxPoint as="targetPoint"/>
                    </mxGeometry>
                </mxCell>
                <mxCell id="282" value="" style="ellipse;whiteSpace=wrap;html=1;fillColor=#1900FF;strokeColor=#1900FF;" parent="1" vertex="1">
                    <mxGeometry x="563" y="-501" width="10" height="10" as="geometry"/>
                </mxCell>
                <mxCell id="283" value="day" style="ellipse;whiteSpace=wrap;html=1;dashed=1;" parent="1" vertex="1">
                    <mxGeometry x="572" y="-193" width="120" height="80" as="geometry"/>
                </mxCell>
                <mxCell id="284" value="" style="ellipse;whiteSpace=wrap;html=1;fillColor=#1900FF;strokeColor=#1900FF;" parent="1" vertex="1">
                    <mxGeometry x="627" y="-394" width="10" height="10" as="geometry"/>
                </mxCell>
                <mxCell id="285" value="" style="endArrow=none;html=1;rounded=0;" parent="1" target="284" edge="1">
                    <mxGeometry width="50" height="50" relative="1" as="geometry">
                        <mxPoint x="632" y="-330" as="sourcePoint"/>
                        <mxPoint x="632" y="-389" as="targetPoint"/>
                    </mxGeometry>
                </mxCell>
                <mxCell id="286" value="" style="ellipse;whiteSpace=wrap;html=1;fillColor=#1900FF;strokeColor=#1900FF;" parent="1" vertex="1">
                    <mxGeometry x="572" y="-404" width="10" height="10" as="geometry"/>
                </mxCell>
                <mxCell id="289" value="" style="group;rotation=-270;" parent="1" vertex="1" connectable="0">
                    <mxGeometry x="960" y="-190" width="80" height="40" as="geometry"/>
                </mxCell>
                <mxCell id="290" value="" style="rounded=0;whiteSpace=wrap;html=1;rotation=-270;" parent="289" vertex="1">
                    <mxGeometry x="20" y="-20" width="40" height="40" as="geometry"/>
                </mxCell>
                <mxCell id="291" value="" style="rounded=0;whiteSpace=wrap;html=1;rotation=-270;" parent="289" vertex="1">
                    <mxGeometry x="20" y="20" width="40" height="40" as="geometry"/>
                </mxCell>
                <mxCell id="292" value="" style="endArrow=none;html=1;rounded=0;entryX=1;entryY=0.5;entryDx=0;entryDy=0;exitX=0.731;exitY=0.046;exitDx=0;exitDy=0;exitPerimeter=0;" parent="1" source="38" target="291" edge="1">
                    <mxGeometry width="50" height="50" relative="1" as="geometry">
                        <mxPoint x="1000" y="-70" as="sourcePoint"/>
                        <mxPoint x="999.6700000000001" y="-99" as="targetPoint"/>
                    </mxGeometry>
                </mxCell>
                <mxCell id="294" value="" style="endArrow=classic;startArrow=classic;html=1;rounded=0;" parent="1" edge="1">
                    <mxGeometry width="50" height="50" relative="1" as="geometry">
                        <mxPoint x="970" y="-169" as="sourcePoint"/>
                        <mxPoint x="970" y="-210" as="targetPoint"/>
                    </mxGeometry>
                </mxCell>
                <mxCell id="296" value="" style="ellipse;whiteSpace=wrap;html=1;fillColor=#1900FF;strokeColor=#1900FF;" parent="1" vertex="1">
                    <mxGeometry x="693" y="-404" width="10" height="10" as="geometry"/>
                </mxCell>
                <mxCell id="297" value="" style="endArrow=none;html=1;rounded=0;" parent="1" target="296" edge="1">
                    <mxGeometry width="50" height="50" relative="1" as="geometry">
                        <mxPoint x="1000" y="-210" as="sourcePoint"/>
                        <mxPoint x="874" y="-389" as="targetPoint"/>
                    </mxGeometry>
                </mxCell>
                <mxCell id="298" value="" style="group;rotation=0;" parent="1" vertex="1" connectable="0">
                    <mxGeometry x="-282.5" y="90" width="121" height="60" as="geometry"/>
                </mxCell>
                <mxCell id="299" value="" style="rounded=0;whiteSpace=wrap;html=1;container=0;rotation=0;" parent="298" vertex="1">
                    <mxGeometry y="20" width="40" height="40" as="geometry"/>
                </mxCell>
                <mxCell id="302" value="" style="rounded=0;whiteSpace=wrap;html=1;container=0;rotation=0;" parent="298" vertex="1">
                    <mxGeometry x="39" y="20" width="40" height="40" as="geometry"/>
                </mxCell>
                <mxCell id="303" value="" style="rounded=0;whiteSpace=wrap;html=1;container=0;rotation=0;" parent="298" vertex="1">
                    <mxGeometry x="79" y="20" width="40" height="40" as="geometry"/>
                </mxCell>
                <mxCell id="300" value="" style="endArrow=classic;startArrow=classic;html=1;rounded=0;" parent="1" edge="1">
                    <mxGeometry width="50" height="50" relative="1" as="geometry">
                        <mxPoint x="-246.5" y="168" as="sourcePoint"/>
                        <mxPoint x="-161.5" y="169" as="targetPoint"/>
                    </mxGeometry>
                </mxCell>
                <mxCell id="301" value="" style="endArrow=classic;startArrow=classic;html=1;rounded=0;" parent="1" edge="1">
                    <mxGeometry width="50" height="50" relative="1" as="geometry">
                        <mxPoint x="-283.5" y="160" as="sourcePoint"/>
                        <mxPoint x="-199.5" y="160" as="targetPoint"/>
                    </mxGeometry>
                </mxCell>
                <mxCell id="304" value="" style="endArrow=none;html=1;rounded=0;startArrow=none;exitX=0.5;exitY=0;exitDx=0;exitDy=0;" parent="1" source="302" edge="1">
                    <mxGeometry width="50" height="50" relative="1" as="geometry">
                        <mxPoint x="-185" y="71" as="sourcePoint"/>
                        <mxPoint x="-210" y="-480" as="targetPoint"/>
                    </mxGeometry>
                </mxCell>
                <mxCell id="305" value="" style="endArrow=none;html=1;rounded=0;startArrow=none;exitX=0.025;exitY=0.366;exitDx=0;exitDy=0;exitPerimeter=0;" parent="1" source="241" edge="1">
                    <mxGeometry width="50" height="50" relative="1" as="geometry">
                        <mxPoint x="-88" y="99" as="sourcePoint"/>
                        <mxPoint x="-210" y="-480" as="targetPoint"/>
                    </mxGeometry>
                </mxCell>
                <mxCell id="306" value="" style="ellipse;whiteSpace=wrap;html=1;fillColor=#1900FF;strokeColor=#1900FF;" parent="1" vertex="1">
                    <mxGeometry x="533" y="-471" width="10" height="10" as="geometry"/>
                </mxCell>
                <mxCell id="307" value="" style="group;rotation=-60;" parent="1" vertex="1" connectable="0">
                    <mxGeometry x="448" y="-300" width="80" height="40" as="geometry"/>
                </mxCell>
                <mxCell id="308" value="" style="rounded=0;whiteSpace=wrap;html=1;rotation=-60;" parent="307" vertex="1">
                    <mxGeometry x="10" y="17" width="40" height="40" as="geometry"/>
                </mxCell>
                <mxCell id="309" value="" style="rounded=0;whiteSpace=wrap;html=1;rotation=-60;" parent="307" vertex="1">
                    <mxGeometry x="30" y="-17" width="40" height="40" as="geometry"/>
                </mxCell>
                <mxCell id="310" value="" style="endArrow=classic;startArrow=classic;html=1;rounded=0;" parent="1" edge="1">
                    <mxGeometry width="50" height="50" relative="1" as="geometry">
                        <mxPoint x="453" y="-300" as="sourcePoint"/>
                        <mxPoint x="473" y="-330" as="targetPoint"/>
                    </mxGeometry>
                </mxCell>
                <mxCell id="311" value="" style="endArrow=none;html=1;rounded=0;entryX=1.032;entryY=0.566;entryDx=0;entryDy=0;entryPerimeter=0;" parent="1" source="286" target="309" edge="1">
                    <mxGeometry width="50" height="50" relative="1" as="geometry">
                        <mxPoint x="560" y="-360" as="sourcePoint"/>
                        <mxPoint x="448" y="-280.0000000000002" as="targetPoint"/>
                    </mxGeometry>
                </mxCell>
                <mxCell id="312" value="" style="endArrow=none;html=1;rounded=0;entryX=0.611;entryY=0.015;entryDx=0;entryDy=0;entryPerimeter=0;exitX=0;exitY=0.5;exitDx=0;exitDy=0;" parent="1" source="308" target="mfv2O1PccH4M57eqfQ7O-421" edge="1">
                    <mxGeometry width="50" height="50" relative="1" as="geometry">
                        <mxPoint x="453.002144138216" y="-230.0018028909214" as="sourcePoint"/>
                        <mxPoint x="389.99630706599083" y="-149.0590205925327" as="targetPoint"/>
                    </mxGeometry>
                </mxCell>
                <mxCell id="313" value="" style="ellipse;whiteSpace=wrap;html=1;fillColor=#1900FF;strokeColor=#1900FF;" parent="1" vertex="1">
                    <mxGeometry x="333" y="-70" width="10" height="10" as="geometry"/>
                </mxCell>
                <mxCell id="315" value="Preferences" style="ellipse;whiteSpace=wrap;html=1;rotation=0;" vertex="1" parent="1">
                    <mxGeometry x="732" y="840" width="120" height="80" as="geometry"/>
                </mxCell>
                <mxCell id="320" value="darkMode" style="ellipse;whiteSpace=wrap;html=1;rotation=0;dashed=1;" vertex="1" parent="1">
                    <mxGeometry x="400" y="810" width="120" height="80" as="geometry"/>
                </mxCell>
                <mxCell id="325" value="showAll" style="ellipse;whiteSpace=wrap;html=1;rotation=0;dashed=1;" vertex="1" parent="1">
                    <mxGeometry x="400" y="920" width="120" height="80" as="geometry"/>
                </mxCell>
                <mxCell id="326" value="" style="group;rotation=0;" vertex="1" connectable="0" parent="1">
                    <mxGeometry x="592" y="830" width="80" height="40" as="geometry"/>
                </mxCell>
                <mxCell id="327" value="" style="rounded=0;whiteSpace=wrap;html=1;rotation=0;" vertex="1" parent="326">
                    <mxGeometry width="40" height="40" as="geometry"/>
                </mxCell>
                <mxCell id="328" value="" style="rounded=0;whiteSpace=wrap;html=1;rotation=0;" vertex="1" parent="326">
                    <mxGeometry x="40" width="40" height="40" as="geometry"/>
                </mxCell>
                <mxCell id="330" value="" style="endArrow=none;html=1;rounded=0;startArrow=none;" edge="1" parent="1">
                    <mxGeometry width="50" height="50" relative="1" as="geometry">
                        <mxPoint x="660" y="685" as="sourcePoint"/>
                        <mxPoint x="660" y="685" as="targetPoint"/>
                    </mxGeometry>
                </mxCell>
                <mxCell id="331" value="" style="endArrow=classic;startArrow=classic;html=1;rounded=0;" edge="1" parent="1">
                    <mxGeometry width="50" height="50" relative="1" as="geometry">
                        <mxPoint x="670" y="820" as="sourcePoint"/>
                        <mxPoint x="630" y="820" as="targetPoint"/>
                    </mxGeometry>
                </mxCell>
                <mxCell id="333" value="" style="endArrow=none;html=1;rounded=0;entryX=1;entryY=0.5;entryDx=0;entryDy=0;exitX=0;exitY=0.5;exitDx=0;exitDy=0;" edge="1" parent="1" target="320" source="327">
                    <mxGeometry width="50" height="50" relative="1" as="geometry">
                        <mxPoint x="660" y="744" as="sourcePoint"/>
                        <mxPoint x="660" y="690" as="targetPoint"/>
                    </mxGeometry>
                </mxCell>
                <mxCell id="334" value="" style="endArrow=none;html=1;rounded=0;entryX=1;entryY=0.5;entryDx=0;entryDy=0;exitX=0;exitY=0.5;exitDx=0;exitDy=0;" edge="1" parent="1" source="315" target="328">
                    <mxGeometry width="50" height="50" relative="1" as="geometry">
                        <mxPoint x="803.0014834742185" y="790.0036190979496" as="sourcePoint"/>
                        <mxPoint x="729.3199999999999" y="780.18" as="targetPoint"/>
                        <Array as="points">
                            <mxPoint x="710" y="850"/>
                        </Array>
                    </mxGeometry>
                </mxCell>
                <mxCell id="335" value="" style="group;rotation=0;" vertex="1" connectable="0" parent="1">
                    <mxGeometry x="590" y="940" width="80" height="40" as="geometry"/>
                </mxCell>
                <mxCell id="336" value="" style="rounded=0;whiteSpace=wrap;html=1;rotation=0;" vertex="1" parent="335">
                    <mxGeometry width="40" height="40" as="geometry"/>
                </mxCell>
                <mxCell id="337" value="" style="rounded=0;whiteSpace=wrap;html=1;rotation=0;" vertex="1" parent="335">
                    <mxGeometry x="40" width="40" height="40" as="geometry"/>
                </mxCell>
                <mxCell id="338" value="" style="endArrow=classic;startArrow=classic;html=1;rounded=0;" edge="1" parent="1">
                    <mxGeometry width="50" height="50" relative="1" as="geometry">
                        <mxPoint x="670" y="930" as="sourcePoint"/>
                        <mxPoint x="630" y="930" as="targetPoint"/>
                    </mxGeometry>
                </mxCell>
                <mxCell id="339" value="" style="endArrow=none;html=1;rounded=0;entryX=1;entryY=0.5;entryDx=0;entryDy=0;exitX=0;exitY=0.5;exitDx=0;exitDy=0;" edge="1" parent="1" source="336" target="325">
                    <mxGeometry width="50" height="50" relative="1" as="geometry">
                        <mxPoint x="740" y="834" as="sourcePoint"/>
                        <mxPoint x="600" y="920" as="targetPoint"/>
                    </mxGeometry>
                </mxCell>
                <mxCell id="340" value="" style="endArrow=none;html=1;rounded=0;entryX=1;entryY=0.5;entryDx=0;entryDy=0;exitX=0;exitY=1;exitDx=0;exitDy=0;" edge="1" parent="1" target="337" source="315">
                    <mxGeometry width="50" height="50" relative="1" as="geometry">
                        <mxPoint x="812" y="970" as="sourcePoint"/>
                        <mxPoint x="809.3199999999999" y="870.18" as="targetPoint"/>
                        <Array as="points">
                            <mxPoint x="720" y="960"/>
                        </Array>
                    </mxGeometry>
                </mxCell>
                <mxCell id="342" value="" style="group;rotation=0;" vertex="1" connectable="0" parent="1">
                    <mxGeometry x="920" y="840" width="80" height="40" as="geometry"/>
                </mxCell>
                <mxCell id="343" value="" style="rounded=0;whiteSpace=wrap;html=1;rotation=0;" vertex="1" parent="342">
                    <mxGeometry width="40" height="40" as="geometry"/>
                </mxCell>
                <mxCell id="344" value="" style="rounded=0;whiteSpace=wrap;html=1;rotation=0;" vertex="1" parent="342">
                    <mxGeometry x="40" width="40" height="40" as="geometry"/>
                </mxCell>
                <mxCell id="345" value="" style="endArrow=classic;startArrow=classic;html=1;rounded=0;" edge="1" parent="1">
                    <mxGeometry width="50" height="50" relative="1" as="geometry">
                        <mxPoint x="960" y="829.9999999999995" as="sourcePoint"/>
                        <mxPoint x="920" y="829.9999999999995" as="targetPoint"/>
                    </mxGeometry>
                </mxCell>
                <mxCell id="346" value="" style="endArrow=none;html=1;rounded=0;entryX=0.974;entryY=0.357;entryDx=0;entryDy=0;exitX=0;exitY=0.5;exitDx=0;exitDy=0;entryPerimeter=0;startArrow=none;" edge="1" parent="1" source="349" target="315">
                    <mxGeometry width="50" height="50" relative="1" as="geometry">
                        <mxPoint x="990" y="774" as="sourcePoint"/>
                        <mxPoint x="850" y="880" as="targetPoint"/>
                    </mxGeometry>
                </mxCell>
                <mxCell id="348" value="" style="endArrow=none;html=1;rounded=0;entryX=0.974;entryY=0.357;entryDx=0;entryDy=0;entryPerimeter=0;exitX=1;exitY=1;exitDx=0;exitDy=0;" edge="1" parent="1" source="38">
                    <mxGeometry width="50" height="50" relative="1" as="geometry">
                        <mxPoint x="1010" y="490" as="sourcePoint"/>
                        <mxPoint x="1000.0000000000001" y="854.28" as="targetPoint"/>
                        <Array as="points">
                            <mxPoint x="1090" y="854"/>
                        </Array>
                    </mxGeometry>
                </mxCell>
                <mxCell id="349" value="" style="ellipse;whiteSpace=wrap;html=1;fillColor=#1900FF;strokeColor=#1900FF;" vertex="1" parent="1">
                    <mxGeometry x="844" y="860" width="10" height="10" as="geometry"/>
                </mxCell>
                <mxCell id="350" value="" style="endArrow=none;html=1;rounded=0;entryX=0.974;entryY=0.357;entryDx=0;entryDy=0;exitX=0;exitY=0.5;exitDx=0;exitDy=0;entryPerimeter=0;" edge="1" parent="1" source="343" target="349">
                    <mxGeometry width="50" height="50" relative="1" as="geometry">
                        <mxPoint x="920" y="860" as="sourcePoint"/>
                        <mxPoint x="848.8799999999999" y="868.56" as="targetPoint"/>
                    </mxGeometry>
                </mxCell>
            </root>
        </mxGraphModel>
    </diagram>
</mxfile>